<?xml version="1.0" standalone="no"?>
<!DOCTYPE svg PUBLIC "-//W3C//DTD SVG 20010904//EN"
 "http://www.w3.org/TR/2001/REC-SVG-20010904/DTD/svg10.dtd">
<svg version="1.0" xmlns="http://www.w3.org/2000/svg"
 width="127.000000pt" height="118.000000pt" viewBox="0 0 127.000000 118.000000"
 preserveAspectRatio="xMidYMid meet">

<g transform="translate(0.000000,118.000000) scale(0.100000,-0.100000)"
fill="#000000" stroke="none">
<path d="M536 1145 c-11 -8 -33 -13 -50 -11 -17 1 -47 -4 -67 -11 -26 -10 -43
-11 -63 -3 -39 15 -49 13 -92 -16 -21 -14 -49 -28 -63 -31 -14 -2 -35 -12 -46
-22 -11 -11 -30 -22 -42 -25 -33 -10 -79 -62 -93 -107 -12 -36 -12 -42 6 -66
30 -40 65 -63 108 -70 29 -4 49 -18 84 -56 103 -111 271 -272 392 -377 41 -36
88 -78 105 -93 58 -53 290 -226 318 -236 25 -10 32 -8 57 16 15 16 34 29 41
31 47 11 97 82 86 123 -3 10 5 38 17 62 20 38 22 56 19 143 -2 54 -5 129 -6
166 -2 54 -6 71 -25 91 -17 18 -21 31 -17 49 9 36 -18 94 -53 112 -19 10 -31
25 -35 46 -5 21 -16 35 -39 46 -18 9 -47 35 -63 58 -19 25 -40 42 -55 44 -14
2 -41 21 -61 44 -29 34 -42 41 -69 40 -24 0 -44 8 -67 29 -36 31 -53 35 -84
18 -16 -8 -26 -7 -44 5 -30 20 -74 20 -99 1z m94 -20 c7 -9 2 -18 -23 -35 -18
-12 -43 -37 -54 -55 -18 -27 -29 -33 -70 -38 -26 -3 -50 -4 -52 -1 -2 2 11 26
29 54 51 80 135 117 170 75z m121 -16 c33 -23 37 -37 12 -46 -10 -3 -31 -16
-48 -28 -23 -17 -44 -22 -92 -22 -75 0 -80 12 -25 54 91 70 107 75 153 42z
m-271 3 c0 -4 -11 -24 -25 -44 -14 -21 -30 -49 -35 -62 -9 -24 -54 -46 -67
-32 -10 10 29 98 53 121 21 20 74 32 74 17z m-120 -12 c17 -9 17 -13 -9 -77
-27 -66 -29 -68 -87 -90 -66 -26 -67 -26 -60 -15 3 5 10 39 16 77 8 51 17 73
33 84 43 32 75 38 107 21z m515 -45 c30 -29 32 -45 5 -45 -11 0 -37 -7 -57
-15 -29 -12 -43 -13 -75 -3 -21 6 -37 16 -35 22 4 12 104 64 125 65 7 1 24
-10 37 -24z m-665 -27 c0 -18 -5 -53 -11 -78 -12 -48 -17 -75 -18 -102 -1 -10
-10 -27 -21 -38 -16 -16 -24 -18 -49 -9 -30 11 -91 70 -91 89 0 23 57 101 82
111 14 6 41 22 59 35 43 31 49 30 49 -8z m552 -57 c26 -11 65 -25 85 -30 50
-14 192 -144 221 -203 24 -48 70 -204 85 -290 12 -62 7 -81 -68 -261 -20 -48
-35 -93 -32 -100 2 -7 12 12 21 41 22 65 42 57 32 -12 -9 -59 -35 -91 -67 -83
-28 8 -287 205 -397 303 -145 129 -247 227 -359 343 -110 114 -111 116 -97
143 8 15 14 36 14 47 0 14 11 25 34 35 211 88 420 115 528 67z m198 24 c10 -3
30 -22 45 -41 l27 -36 -43 7 c-24 3 -56 8 -70 9 -14 2 -32 7 -39 11 -7 5 -27
11 -44 15 l-31 7 32 15 c36 15 95 22 123 13z m60 -91 c58 -10 67 -15 78 -39 7
-14 12 -27 12 -29 0 -1 -23 -2 -50 -1 -46 1 -55 5 -93 44 l-42 43 35 -6 c19
-4 46 -9 60 -12z m107 -99 c20 -8 42 -23 49 -33 18 -23 19 -86 2 -78 -7 2 -30
10 -50 17 -21 7 -40 20 -44 31 -3 10 -17 32 -31 48 l-25 30 31 0 c18 0 48 -7
68 -15z m63 -145 c28 -22 36 -35 38 -69 2 -22 1 -41 -1 -41 -2 0 -29 25 -60
56 -87 85 -69 127 23 54z m-7 -91 c47 -54 76 -126 61 -152 -8 -13 -14 -11 -42
14 -23 21 -38 48 -53 97 -11 37 -22 73 -24 80 -9 26 15 10 58 -39z m31 -170
c30 -35 35 -97 11 -139 -13 -24 -14 -24 -20 -5 -4 11 -13 35 -21 53 -16 36
-19 122 -5 122 5 0 21 -14 35 -31z m-30 -126 c31 -90 12 -171 -43 -186 -17 -4
-19 3 -24 66 -4 56 0 80 16 119 11 26 23 48 27 48 5 0 15 -21 24 -47z"/>
</g>
</svg>
